<?xml version="1.0" encoding="UTF-8" standalone="no"?>
<!-- Created with Inkscape (http://www.inkscape.org/) -->

<svg
   xmlns:dc="http://purl.org/dc/elements/1.1/"
   xmlns:cc="http://creativecommons.org/ns#"
   xmlns:rdf="http://www.w3.org/1999/02/22-rdf-syntax-ns#"
   xmlns:svg="http://www.w3.org/2000/svg"
   xmlns="http://www.w3.org/2000/svg"
   xmlns:sodipodi="http://sodipodi.sourceforge.net/DTD/sodipodi-0.dtd"
   xmlns:inkscape="http://www.inkscape.org/namespaces/inkscape"
   inkscape:export-ydpi="600"
   inkscape:export-xdpi="600"
   inkscape:export-filename="/home/jun/.share/projects/misc/ocamloscope/images/kono-rorikon-domoga.png"
   sodipodi:docname="kono-rorikon-domome.svg"
   inkscape:version="0.48.3.1 r9886"
   version="1.1"
   id="svg2"
   height="220.54631"
   width="220.55081">
  <defs
     id="defs4" />
  <sodipodi:namedview
     id="base"
     pagecolor="#ffffff"
     bordercolor="#666666"
     borderopacity="1.0"
     inkscape:pageopacity="0.0"
     inkscape:pageshadow="2"
     inkscape:zoom="1.979899"
     inkscape:cx="-174.26612"
     inkscape:cy="115.13936"
     inkscape:document-units="px"
     inkscape:current-layer="layer1"
     showgrid="true"
     inkscape:window-width="1680"
     inkscape:window-height="1003"
     inkscape:window-x="0"
     inkscape:window-y="19"
     inkscape:window-maximized="0"
     fit-margin-top="10"
     fit-margin-left="10"
     fit-margin-right="10"
     fit-margin-bottom="10">
    <inkscape:grid
       type="xygrid"
       id="grid2985"
       empspacing="5"
       visible="true"
       enabled="true"
       snapvisiblegridlinesonly="true"
       originx="-209.7266px"
       originy="-389.72932px" />
  </sodipodi:namedview>
  <metadata
     id="metadata7">
    <rdf:RDF>
      <cc:Work
         rdf:about="">
        <dc:format>image/svg+xml</dc:format>
        <dc:type
           rdf:resource="http://purl.org/dc/dcmitype/StillImage" />
        <dc:title />
      </cc:Work>
    </rdf:RDF>
  </metadata>
  <g
     inkscape:label="Layer 1"
     inkscape:groupmode="layer"
     id="layer1"
     transform="translate(-209.7266,-442.08655)">
    <g
       style="font-size:30px;font-style:normal;font-variant:normal;font-weight:normal;font-stretch:normal;line-height:125%;letter-spacing:0px;word-spacing:0px;fill:#000000;fill-opacity:1;stroke:none;font-family:Symbol;-inkscape-font-specification:Symbol"
       id="text3978">
      <path
         d="m 403.10963,551.49106 c -1.72141,-0.0703 -2.77886,-0.85694 -2.88861,-2.20247 -0.078,-0.95682 0.60363,-1.82511 1.91258,-2.38337 0.58094,-0.25808 1.54572,-0.60766 2.65999,-0.96944 l 15.48382,5.69011 -0.22925,-2.81067 -11.11905,-4.21003 c 5.7526,-1.43239 7.83653,-2.08395 8.95876,-2.71728 1.23208,-0.76268 1.84175,-1.7756 1.75152,-2.88192 -0.0951,-1.16613 -0.88833,-2.03452 -2.24542,-2.43553 -0.83415,-0.26306 -1.65123,-0.31681 -3.059,-0.23209 l 0.0512,0.62791 c 1.57434,0.11239 2.49756,0.72938 2.58535,1.80581 0.0732,0.89702 -0.43154,1.72078 -1.43904,2.28454 -0.74571,0.45212 -1.50606,0.72484 -3.68457,1.32391 l -3.79135,1.12193 c -0.0873,0.0372 -0.29413,0.0842 -0.58826,0.16838 -3.80109,1.00231 -7.36119,2.37627 -8.37908,3.18168 -0.90317,0.73586 -1.33832,1.67434 -1.25784,2.66107 0.14877,1.82394 1.78165,2.65394 5.33676,2.69508 l -0.0585,-0.71762"
         style="stroke:none;font-family:Symbol;-inkscape-font-specification:Symbol"
         id="path3017"
         inkscape:connector-curvature="0" />
      <path
         d="m 398.79664,525.82798 c -1.65806,0.46801 -2.90758,0.0488 -3.42994,-1.19602 -0.37145,-0.88522 0.007,-1.92233 1.07745,-2.85963 0.47201,-0.4258 1.28043,-1.05783 2.22717,-1.7479 l 16.48539,0.59791 -1.09113,-2.60035 -11.8768,-0.54715 c 5.02289,-3.14876 6.80126,-4.41553 7.67119,-5.36617 0.93415,-1.10773 1.19895,-2.25994 0.76946,-3.28348 -0.4527,-1.07887 -1.47647,-1.65784 -2.89098,-1.61738 -0.8746,0.009 -1.66794,0.21188 -2.97972,0.72978 l 0.24376,0.58093 c 1.53135,-0.3823 2.60057,-0.0827 3.01845,0.91321 0.34824,0.8299 0.12444,1.76969 -0.65805,2.61858 -0.56834,0.66143 -1.20633,1.15688 -3.09091,2.40314 l -3.25515,2.24432 c -0.0714,0.0625 -0.25342,0.17141 -0.50683,0.34281 -3.30158,2.13367 -6.25863,4.54571 -6.97592,5.62751 -0.62985,0.98004 -0.75189,2.00728 -0.36883,2.92016 0.70808,1.68746 2.51802,1.96908 5.90998,0.90365 l -0.27859,-0.66392"
         style="stroke:none;font-family:Symbol;-inkscape-font-specification:Symbol"
         id="path3019"
         inkscape:connector-curvature="0" />
      <path
         d="m 386.70054,502.76358 c -1.43183,0.95816 -2.74973,0.94625 -3.63169,-0.0758 -0.62717,-0.72682 -0.58852,-1.83004 0.13957,-3.0527 0.31707,-0.55097 0.8902,-1.40215 1.5769,-2.35134 l 15.86112,-4.53327 -1.84231,-2.13501 -11.46306,3.15529 c 3.80184,-4.54864 5.10087,-6.30358 5.63389,-7.47678 0.54547,-1.34244 0.4407,-2.52004 -0.28447,-3.36041 -0.76436,-0.8858 -1.91705,-1.11953 -3.2496,-0.64329 -0.82883,0.27934 -1.52048,0.71766 -2.60758,1.61611 l 0.41158,0.47697 c 1.33786,-0.83745 2.44731,-0.88343 3.15288,-0.0658 0.58797,0.68139 0.666,1.64431 0.18464,2.69368 -0.33575,0.80485 -0.78909,1.47342 -2.19546,3.24173 l -2.40078,3.14153 c -0.0485,0.0815 -0.18793,0.24142 -0.37586,0.48283 -2.47919,3.05068 -4.54459,6.25944 -4.89188,7.51011 -0.29563,1.12686 -0.0938,2.14143 0.55299,2.89096 1.19555,1.38548 3.00379,1.09314 5.8995,-0.96971 l -0.47038,-0.54511"
         style="stroke:none;font-family:Symbol;-inkscape-font-specification:Symbol"
         id="path3021"
         inkscape:connector-curvature="0" />
      <path
         d="m 368.06008,484.54045 c -1.06681,1.35282 -2.32422,1.74769 -3.47826,1.04719 -0.82065,-0.49812 -1.12392,-1.55955 -0.8081,-2.94709 0.13181,-0.62187 0.4147,-1.60827 0.77541,-2.72289 l 13.69177,-9.20117 -2.41067,-1.46325 -9.93251,6.53473 c 2.21481,-5.49897 2.90971,-7.56886 3.05519,-8.84922 0.10516,-1.44521 -0.35746,-2.53319 -1.30634,-3.10915 -1.00017,-0.60709 -2.16877,-0.47416 -3.28967,0.3896 -0.70239,0.52119 -1.22527,1.15135 -1.98254,2.34112 l 0.53855,0.32689 c 1.01462,-1.20902 2.05589,-1.59471 2.97913,-1.03431 0.76936,0.46699 1.14037,1.35898 1.00587,2.50563 -0.0713,0.86915 -0.29655,1.64489 -1.08944,3.76058 l -1.31565,3.72855 c -0.0211,0.0925 -0.10438,0.28758 -0.20875,0.57517 -1.41824,3.66627 -2.39412,7.35541 -2.33902,8.65223 0.0661,1.16312 0.5708,2.06608 1.41709,2.57978 1.56437,0.94955 3.19448,0.11412 5.31342,-2.74079 l -0.61548,-0.3736"
         style="stroke:none;font-family:Symbol;-inkscape-font-specification:Symbol"
         id="path3023"
         inkscape:connector-curvature="0" />
      <path
         d="m 344.74969,472.98738 c -0.59309,1.61754 -1.6653,2.38394 -2.97998,2.07717 -0.93489,-0.21816 -1.55327,-1.1326 -1.68472,-2.54954 -0.0682,-0.63203 -0.10612,-1.65748 -0.11001,-2.82901 l 10.15052,-13.00358 -2.74623,-0.64082 -7.40715,9.30009 c 0.39448,-5.9151 0.41106,-8.09846 0.15106,-9.36056 -0.34959,-1.40623 -1.12768,-2.29633 -2.20864,-2.54857 -1.13939,-0.26587 -2.20867,0.22396 -3.00529,1.39353 -0.50543,0.71382 -0.80636,1.47536 -1.15598,2.84165 l 0.61351,0.14317 c 0.58822,-1.46465 1.45787,-2.1551 2.50962,-1.90967 0.87645,0.20451 1.50652,0.93685 1.73536,2.06846 0.20254,0.84821 0.2298,1.65553 0.13434,3.91289 l -0.0906,3.95282 c 0.009,0.0945 -0.01,0.30579 -0.0195,0.61157 -0.20747,3.92555 0.0126,7.73523 0.46831,8.95059 0.42458,1.08486 1.18514,1.78604 2.14924,2.011 1.78212,0.41586 3.07151,-0.88518 4.19731,-4.25758 l -0.70116,-0.16361"
         style="stroke:none;font-family:Symbol;-inkscape-font-specification:Symbol"
         id="path3025"
         inkscape:connector-curvature="0" />
      <path
         d="m 318.94286,469.25459 c -0.0665,1.72156 -0.85076,2.78076 -2.19605,2.89349 -0.95664,0.0802 -1.82644,-0.59958 -2.38761,-1.90728 -0.25937,-0.58037 -0.61109,-1.54437 -0.97535,-2.65784 l 5.65571,-15.49641 -2.81015,0.23549 -4.18533,11.12837 c -1.44515,-5.7494 -2.10135,-7.83188 -2.73716,-8.9527 -0.76542,-1.23038 -1.77969,-1.83781 -2.88581,-1.74512 -1.16591,0.0977 -2.03254,0.89285 -2.43053,2.25083 -0.26121,0.83473 -0.31315,1.65192 -0.2253,3.0595 l 0.6278,-0.0526 c 0.10889,-1.57459 0.72383,-2.49917 1.80006,-2.58936 0.89685,-0.0752 1.72173,0.42772 2.28773,1.43397 0.45377,0.74471 0.72818,1.50445 1.33209,3.68162 l 1.13034,3.78885 c 0.0374,0.0872 0.0848,0.29394 0.16969,0.58788 1.01075,3.79886 2.39261,7.35589 3.20029,8.372 0.73786,0.90153 1.6773,1.33459 2.66384,1.25192 1.82361,-0.15281 2.64999,-1.78753 2.68322,-5.34272 l -0.71748,0.0601"
         style="stroke:none;font-family:Symbol;-inkscape-font-specification:Symbol"
         id="path3027"
         inkscape:connector-curvature="0" />
      <path
         d="m 293.29011,473.6249 c 0.47173,1.657 0.0554,2.90746 -1.18831,3.43261 -0.88438,0.37344 -1.92234,-0.002 -2.86205,-1.07101 -0.42686,-0.47105 -1.0607,-1.27805 -1.7529,-2.22323 l 0.56083,-16.4867 -2.59789,1.09699 -0.52044,11.87799 c -3.16004,-5.01579 -4.43081,-6.79131 -5.38341,-7.6591 -1.10983,-0.93165 -2.26263,-1.19387 -3.2852,-0.76207 -1.07785,0.45513 -1.65452,1.48019 -1.61087,2.89461 0.0111,0.87457 0.21563,1.66746 0.73648,2.97807 l 0.58038,-0.24507 c -0.38574,-1.53049 -0.0885,-2.60038 0.90642,-3.0205 0.82911,-0.3501 1.76941,-0.12841 2.62005,0.65216 0.6627,0.56686 1.15959,1.20373 2.41009,3.0855 l 2.25164,3.2501 c 0.0626,0.0712 0.17197,0.25303 0.34395,0.50606 2.14108,3.29677 4.55977,6.24838 5.64318,6.96324 0.98145,0.62764 2.00896,0.74737 2.92098,0.36226 1.68587,-0.71187 1.96341,-2.52244 0.89036,-5.91199 l -0.66329,0.28008"
         style="stroke:none;font-family:Symbol;-inkscape-font-specification:Symbol"
         id="path3029"
         inkscape:connector-curvature="0" />
      <path
         d="m 270.2524,485.77291 c 0.96134,1.42969 0.95237,2.74761 -0.0678,3.63184 -0.72541,0.62879 -1.82872,0.59259 -3.05299,-0.13278 -0.55168,-0.31584 -1.40414,-0.88708 -2.35484,-1.57166 l -4.56853,-15.851 -2.13091,1.84705 3.18077,11.45602 c -4.55708,-3.79171 -6.31491,-5.08684 -7.48929,-5.61725 -1.34365,-0.54249 -2.52101,-0.4351 -3.35977,0.29194 -0.8841,0.76633 -1.11526,1.91953 -0.63606,3.25102 0.28118,0.82821 0.72104,1.51888 1.6219,2.60399 l 0.47605,-0.41265 c -0.84042,-1.33599 -0.88886,-2.44534 -0.0728,-3.15272 0.68008,-0.58949 1.64282,-0.66966 2.69326,-0.19063 0.80559,0.33395 1.47517,0.78581 3.2466,2.18824 l 3.14686,2.39379 c 0.0816,0.0484 0.24184,0.1874 0.48367,0.37479 3.05618,2.47239 6.26953,4.53066 7.52097,4.87516 1.12751,0.29313 2.14163,0.089 2.88972,-0.55942 1.38282,-1.19862 1.08646,-3.00621 -0.98283,-5.89732 l -0.54406,0.47159"
         style="stroke:none;font-family:Symbol;-inkscape-font-specification:Symbol"
         id="path3031"
         inkscape:connector-curvature="0" />
      <path
         d="m 252.07089,504.45365 c 1.3552,1.06378 1.75288,2.3203 1.05497,3.47591 -0.4963,0.82176 -1.55705,1.12739 -2.94529,0.81468 -0.62216,-0.13042 -1.60919,-0.4111 -2.72461,-0.76932 l -9.23176,-13.67116 -1.45786,2.41393 6.55692,9.91788 c -5.5039,-2.20251 -7.57534,-2.89278 -8.85603,-3.0354 -1.44544,-0.10193 -2.53237,0.36313 -3.10621,1.31329 -0.60486,1.00152 -0.46932,2.16983 0.39695,3.28879 0.52276,0.70123 1.15409,1.22269 2.34554,1.9773 l 0.3257,-0.53928 c -1.21129,-1.01191 -1.59931,-2.05232 -1.04098,-2.97681 0.46527,-0.7704 1.35643,-1.14341 2.50338,-1.01147 0.8693,0.0694 1.64555,0.29287 3.763,1.08103 l 3.73148,1.30731 c 0.0926,0.0208 0.28782,0.10373 0.57564,0.20746 3.66944,1.41004 7.36074,2.37767 8.65744,2.31968 1.16297,-0.0687 2.0648,-0.57542 2.5766,-1.42286 0.94606,-1.56649 0.10698,-3.19473 -2.75266,-5.30729 l -0.37222,0.61633"
         style="stroke:none;font-family:Symbol;-inkscape-font-specification:Symbol"
         id="path3033"
         inkscape:connector-curvature="0" />
      <path
         d="m 240.57023,527.78987 c 1.61887,0.58946 2.38768,1.65994 2.08386,2.97531 -0.21605,0.93537 -1.1291,1.5558 -2.54574,1.69044 -0.63187,0.0696 -1.65724,0.10985 -2.82876,0.11637 l -13.02636,-10.12125 -0.63465,2.74765 9.31672,7.38623 c -5.91597,-0.38118 -8.09936,-0.39285 -9.36087,-0.13002 -1.40544,0.35275 -2.29379,1.13284 -2.5436,2.21437 -0.26331,1.13998 0.22892,2.20816 1.40028,3.00215 0.71495,0.50382 1.47717,0.80304 2.84425,1.14959 l 0.14178,-0.61384 c -1.46597,-0.58492 -2.15836,-1.45302 -1.91531,-2.50531 0.20255,-0.87691 0.93347,-1.50862 2.06456,-1.74001 0.84776,-0.20445 1.65501,-0.23352 3.91258,-0.14313 l 3.95301,0.0817 c 0.0944,-0.009 0.30581,0.009 0.61162,0.0181 3.926,0.19865 7.73517,-0.03 8.9495,-0.48843 1.08391,-0.42702 1.78337,-1.18916 2.00617,-2.15376 0.41185,-1.78305 -0.89208,-3.06951 -4.267,-4.18772 l -0.16204,0.70152"
         style="stroke:none;font-family:Symbol;-inkscape-font-specification:Symbol"
         id="path3035"
         inkscape:connector-curvature="0" />
      <path
         d="m 236.89482,553.60521 c 1.7217,0.0626 2.78263,0.84458 2.89835,2.18961 0.0823,0.95647 -0.59551,1.82778 -1.90197,2.39184 -0.57979,0.26066 -1.543,0.61453 -2.65566,0.98125 l -15.50894,-5.62128 0.24173,2.80963 11.13764,4.1606 c -5.74617,1.45792 -7.82719,2.11874 -8.9466,2.75704 -1.22867,0.76815 -1.83385,1.78376 -1.7387,2.88968 0.10029,1.16569 0.89736,2.03055 2.25622,2.42552 0.83531,0.25936 1.65261,0.30948 3.05999,0.21851 l -0.054,-0.62768 c -1.57483,-0.1054 -2.50077,-0.71828 -2.59335,-1.79431 -0.0771,-0.89668 0.42389,-1.72267 1.42888,-2.29091 0.7437,-0.45543 1.50283,-0.73152 3.67866,-1.34027 l 3.78632,-1.13875 c 0.0871,-0.0376 0.29375,-0.0855 0.58751,-0.17099 3.7966,-1.01919 7.35056,-2.40895 8.36486,-3.21887 0.8999,-0.73986 1.33087,-1.68027 1.24601,-2.66662 -0.15687,-1.82327 -1.79342,-2.64601 -5.34867,-2.67135 l 0.0617,0.71735"
         style="stroke:none;font-family:Symbol;-inkscape-font-specification:Symbol"
         id="path3037"
         inkscape:connector-curvature="0" />
      <path
         d="m 241.32255,579.2478 c 1.65594,-0.47545 2.90733,-0.0619 3.43528,1.18058 0.37543,0.88355 0.002,1.92235 -1.06458,2.86445 -0.47009,0.42792 -1.27566,1.06358 -2.21928,1.7579 l -16.48792,-0.52375 1.10283,2.59541 11.87913,0.49373 c -5.00867,3.17131 -6.78133,4.44607 -7.64697,5.40062 -0.92916,1.11192 -1.18878,2.26531 -0.75469,3.28691 0.45755,1.07682 1.48391,1.65118 2.89823,1.60435 0.87455,-0.0131 1.66697,-0.21938 2.97641,-0.74318 l -0.24638,-0.57982 c -1.52961,0.38918 -2.60017,0.0944 -3.02253,-0.89962 -0.35196,-0.82833 -0.13239,-1.76912 0.64627,-2.62152 0.56536,-0.66397 1.20112,-1.16229 3.08007,-2.41702 l 3.24503,-2.25893 c 0.0711,-0.0628 0.25264,-0.17255 0.50528,-0.34509 3.29196,-2.1485 6.23812,-4.57381 6.95054,-5.65883 0.62543,-0.98286 0.74285,-2.01063 0.35569,-2.92179 -0.71566,-1.68426 -2.52685,-1.95773 -5.91398,-0.87706 l 0.28157,0.66266"
         style="stroke:none;font-family:Symbol;-inkscape-font-specification:Symbol"
         id="path3039"
         inkscape:connector-curvature="0" />
      <path
         d="m 253.52236,602.25855 c 1.42756,-0.96451 2.7455,-0.95847 3.63199,0.0597 0.6304,0.72402 0.59666,1.8274 -0.12599,3.05328 -0.31461,0.55238 -0.88395,1.4061 -1.56642,2.35833 l -15.84081,4.60376 1.85179,2.1268 11.44892,-3.20623 c -3.78158,4.56549 -5.07279,6.3262 -5.60059,7.50175 -0.5395,1.34486 -0.42949,2.52198 0.29941,3.35912 0.76829,0.88239 1.922,1.11099 3.25242,0.62882 0.82759,-0.28301 1.51728,-0.72441 2.60038,-1.62768 l -0.4137,-0.47513 c -1.33412,0.84339 -2.44336,0.8943 -3.15256,0.0798 -0.591,-0.67876 -0.67331,-1.64133 -0.19661,-2.69283 0.33216,-0.80633 0.78252,-1.47691 2.18101,-3.25146 l 2.3868,-3.15217 c 0.0482,-0.0817 0.18685,-0.24225 0.37371,-0.4845 2.46559,-3.06168 4.51671,-6.27959 4.85843,-7.53179 0.29061,-1.12816 0.0842,-2.14183 -0.56585,-2.88847 -1.20169,-1.38015 -3.00862,-1.07977 -5.89512,0.99593 l 0.47279,0.54301"
         style="stroke:none;font-family:Symbol;-inkscape-font-specification:Symbol"
         id="path3041"
         inkscape:connector-curvature="0" />
      <path
         d="m 272.24326,620.39835 c 1.06075,-1.35758 2.31638,-1.75806 3.47354,-1.06274 0.82287,0.49445 1.13087,1.55452 0.82127,2.94345 -0.12903,0.62246 -0.4075,1.61011 -0.76323,2.72633 l -13.65049,9.2623 2.41719,1.45246 9.90319,-6.57908 c -2.1902,5.50881 -2.87583,7.58179 -3.01559,8.86279 -0.0987,1.44567 0.36879,2.53157 1.32023,3.10328 1.00287,0.60261 2.17087,0.46446 3.28789,-0.40431 0.70006,-0.52433 1.22012,-1.15682 1.97206,-2.34996 l -0.54001,-0.32448 c -1.0092,1.21355 -2.04874,1.60389 -2.97447,1.04763 -0.77144,-0.46355 -1.14644,-1.35388 -1.01707,-2.50112 0.0674,-0.86945 0.2892,-1.6462 1.07261,-3.76541 l 1.29897,-3.73439 c 0.0206,-0.0926 0.10309,-0.28805 0.20618,-0.5761 1.40182,-3.67258 2.3612,-7.36604 2.30031,-8.66261 -0.0713,-1.1628 -0.58004,-2.0635 -1.42862,-2.57341 -1.5686,-0.94255 -3.19496,-0.0998 -5.30111,2.76453 l 0.61715,0.37084"
         style="stroke:none;font-family:Symbol;-inkscape-font-specification:Symbol"
         id="path3043"
         inkscape:connector-curvature="0" />
      <path
         d="m 295.60494,631.84645 c 0.58581,-1.62019 1.65456,-2.39141 2.97061,-2.09055 0.93586,0.21395 1.55834,1.1256 1.69616,2.54194 0.071,0.63171 0.11358,1.65698 0.12273,2.82848 l -10.09193,13.04909 2.74908,0.62847 7.36525,-9.33331 c -0.36787,5.91682 -0.37464,8.10023 -0.10896,9.36115 0.35591,1.40464 1.13799,2.29124 2.22007,2.53861 1.14058,0.26075 2.20765,-0.23389 2.999,-1.40703 0.50222,-0.71608 0.79971,-1.47897 1.14319,-2.84682 l -0.61415,-0.1404 c -0.58163,1.46727 -1.44817,2.16162 -2.501,1.92093 -0.87737,-0.20057 -1.51072,-0.93007 -1.74465,-2.06063 -0.20636,-0.8473 -0.23724,-1.65449 -0.15193,-3.91226 l 0.0728,-3.95318 c -0.009,-0.0944 0.008,-0.30583 0.0167,-0.61166 0.18983,-3.92644 -0.0473,-7.73508 -0.50855,-8.94838 -0.42945,-1.08294 -1.19316,-1.78069 -2.15826,-2.00132 -1.78397,-0.40784 -3.0675,0.89899 -4.17812,4.27641 l 0.70189,0.16046"
         style="stroke:none;font-family:Symbol;-inkscape-font-specification:Symbol"
         id="path3045"
         inkscape:connector-curvature="0" />
      <path
         d="m 321.42884,635.46456 c 0.0588,-1.72184 0.83841,-2.78451 2.18318,-2.90322 0.95628,-0.0844 1.82909,0.59146 2.39605,1.89666 0.26195,0.57921 0.61796,1.54163 0.98715,2.65348 l -5.58682,15.52138 2.80908,-0.24797 4.13586,-11.14685 c 1.47068,5.74292 2.13612,7.82247 2.7769,8.94045 0.77088,1.22697 1.78784,1.82988 2.89353,1.73228 1.16547,-0.10288 2.02856,-0.90187 2.42051,-2.2616 0.2575,-0.83588 0.30581,-1.6533 0.21171,-3.06047 l -0.62756,0.0554 c -0.10189,1.57506 -0.71272,2.50237 -1.78854,2.59733 -0.89651,0.0791 -1.72361,-0.42006 -2.29408,-1.42379 -0.45708,-0.74268 -0.73485,-1.5012 -1.34843,-3.67567 l -1.14716,-3.78378 c -0.0378,-0.087 -0.0861,-0.29356 -0.17229,-0.58713 -1.02763,-3.79433 -2.42528,-7.34519 -3.23745,-8.35769 -0.74186,-0.89825 -1.68322,-1.32714 -2.66938,-1.24008 -1.82291,0.16091 -2.64202,1.79929 -2.65947,5.35459 l 0.71721,-0.0633"
         style="stroke:none;font-family:Symbol;-inkscape-font-specification:Symbol"
         id="path3047"
         inkscape:connector-curvature="0" />
      <path
         d="m 347.06119,630.97939 c -0.47918,-1.65487 -0.0684,-2.90719 1.17285,-3.43793 0.8827,-0.37741 1.92233,-0.006 2.86684,1.05814 0.42897,0.46913 1.06644,1.27326 1.76288,2.21532 l -0.48668,16.48906 2.59293,-1.10866 0.46702,-11.88021 c 3.18256,5.00153 4.46131,6.77131 5.4178,7.63481 1.114,0.92665 2.26797,1.18368 3.28859,0.74729 1.07579,-0.45997 1.64784,-1.48762 1.59783,-2.90183 -0.015,-0.87451 -0.22312,-1.66647 -0.74986,-2.97473 l -0.57927,0.24768 c 0.39262,1.52874 0.10021,2.59995 -0.89282,3.02455 -0.82753,0.35382 -1.76882,0.13637 -2.62296,-0.64038 -0.66525,-0.56387 -1.16499,-1.1985 -2.42394,-3.07462 l -2.26623,-3.23994 c -0.063,-0.071 -0.17311,-0.25226 -0.34622,-0.50451 -2.15589,-3.28711 -4.58783,-6.22782 -5.67444,-6.93779 -0.98427,-0.62323 -2.01231,-0.73834 -2.92259,-0.34913 -1.68264,0.71945 -1.95204,2.53125 -0.86376,5.91594 l 0.66203,-0.28306"
         style="stroke:none;font-family:Symbol;-inkscape-font-specification:Symbol"
         id="path3049"
         inkscape:connector-curvature="0" />
      <path
         d="m 370.04489,618.72788 c -0.96769,-1.4254 -0.96457,-2.74335 0.0516,-3.63211 0.72261,-0.632 1.82607,-0.60072 3.05355,0.1192 0.55308,0.31339 1.40807,0.88083 2.36181,1.56118 l 4.63897,15.83053 2.12267,-1.85651 -3.23167,-11.44176 c 4.57389,3.77141 6.33746,5.05871 7.51418,5.58389 1.34606,0.53651 2.52292,0.42388 3.35845,-0.30687 0.88068,-0.77026 1.10671,-1.92447 0.62159,-3.25382 -0.28486,-0.82695 -0.72779,-1.51566 -1.63346,-2.59675 l -0.47422,0.41476 c 0.84636,1.33224 0.89973,2.44137 0.0868,3.15237 -0.67745,0.5925 -1.63983,0.67696 -2.69239,0.2026 -0.80707,-0.33037 -1.47865,-0.77924 -3.2563,-2.17378 l -3.15747,-2.37978 c -0.0818,-0.048 -0.24267,-0.18632 -0.48533,-0.37263 -3.06715,-2.45878 -6.28961,-4.50274 -7.54258,-4.84167 -1.1288,-0.28811 -2.142,-0.0795 -2.8872,0.57226 -1.37747,1.20476 -1.07308,3.01101 1.00904,5.8929 l 0.54196,-0.47401"
         style="stroke:none;font-family:Symbol;-inkscape-font-specification:Symbol"
         id="path3051"
         inkscape:connector-curvature="0" />
      <path
         d="m 388.14293,599.96688 c -1.35994,-1.05771 -1.76324,-2.31244 -1.0705,-3.47115 0.49261,-0.82398 1.55198,-1.13435 2.94161,-0.82785 0.62274,0.12764 1.61101,0.4039 2.72803,0.75713 l 9.29279,13.62974 1.44705,-2.42042 -6.6012,-9.88847 c 5.5137,2.17788 7.5882,2.85888 8.86951,2.99577 1.44589,0.0955 2.53073,-0.37445 3.10031,-1.32716 0.60038,-1.00422 0.45961,-2.17191 -0.41165,-3.28699 -0.52589,-0.69888 -1.15955,-1.21752 -2.35436,-1.96679 l -0.32328,0.54073 c 1.2158,1.00649 1.60847,2.04515 1.05428,2.97212 -0.46182,0.77248 -1.35131,1.14947 -2.49884,1.02266 -0.8696,-0.0655 -1.64684,-0.28551 -3.76779,-1.06419 l -3.73729,-1.29061 c -0.0926,-0.0204 -0.28828,-0.10245 -0.57656,-0.20489 -3.67571,-1.39361 -7.3713,-2.34472 -8.66773,-2.28093 -1.16264,0.0739 -2.06221,0.58464 -2.57021,1.43437 -0.93904,1.57069 -0.0927,3.19517 2.77637,5.29491 l 0.36946,-0.61798"
         style="stroke:none;font-family:Symbol;-inkscape-font-specification:Symbol"
         id="path3053"
         inkscape:connector-curvature="0" />
      <path
         d="m 399.53843,576.57985 c -1.62151,-0.58216 -2.39513,-1.64918 -2.09722,-2.9659 0.21184,-0.93633 1.12209,-1.56087 2.53811,-1.70187 0.63155,-0.0724 1.65673,-0.11731 2.8282,-0.1291 l 13.07176,10.06256 0.62228,-2.75049 -9.34985,-7.34424 c 5.91763,0.35457 8.10105,0.35642 9.36137,0.0879 1.40384,-0.35907 2.28867,-1.14314 2.53361,-2.22578 0.25818,-1.14116 -0.23885,-2.20712 -1.41377,-2.99582 -0.71722,-0.50061 -1.48077,-0.79639 -2.84939,-1.13679 l -0.13902,0.61447 c 1.46858,0.57832 2.16488,1.44329 1.92656,2.49667 -0.1986,0.87781 -0.92667,1.51281 -2.05671,1.74927 -0.84683,0.20827 -1.65395,0.24097 -3.9119,0.16074 l -3.95334,-0.0639 c -0.0944,0.009 -0.30585,-0.008 -0.61169,-0.0154 -3.92686,-0.18099 -7.73496,0.0648 -8.94722,0.52868 -1.08197,0.43189 -1.778,1.19717 -1.99646,2.16276 -0.40382,1.78489 0.90588,3.06547 4.2858,4.16849 l 0.15888,-0.70225"
         style="stroke:none;font-family:Symbol;-inkscape-font-specification:Symbol"
         id="path3055"
         inkscape:connector-curvature="0" />
    </g>
    <path
       sodipodi:type="arc"
       id="path2991"
       sodipodi:cx="310"
       sodipodi:cy="542.36218"
       sodipodi:rx="70"
       sodipodi:ry="70"
       d="m 380,542.36218 c 0,38.65994 -31.34007,70 -70,70 -38.65993,0 -70,-31.34006 -70,-70 0,-38.65993 31.34007,-70 70,-70 38.65993,0 70,31.34007 70,70 z"
       style="fill:#000000;stroke:none;stroke-width:1.75000011999999994;stroke-miterlimit:4;stroke-opacity:1;stroke-dasharray:none"
       transform="matrix(1.1428571,0,0,1.1428571,-34.285714,-67.480312)"
       inkscape:export-xdpi="1200"
       inkscape:export-ydpi="1200" />
    <g
       id="g3015"
       style="stroke:#444942;stroke-opacity:1;stroke-width:2;stroke-miterlimit:4;stroke-dasharray:none">
      <path
         inkscape:export-ydpi="1200"
         inkscape:export-xdpi="1200"
         inkscape:export-filename="/mnt/home/jun/.share/projects/misc/ocamloscope/images/path2991.png"
         transform="matrix(1.2,0,0,1.2,-52,-98.472437)"
         style="fill:#000000;stroke:#444942;stroke-width:1.66666666999999991;stroke-miterlimit:4;stroke-opacity:1;stroke-dasharray:none"
         d="m 360,542.36218 c 0,27.61424 -22.38576,50 -50,50 -27.61424,0 -50,-22.38576 -50,-50 0,-27.61423 22.38576,-50 50,-50 27.61424,0 50,22.38577 50,50 z"
         sodipodi:ry="50"
         sodipodi:rx="50"
         sodipodi:cy="542.36218"
         sodipodi:cx="310"
         id="path2989"
         sodipodi:type="arc" />
      <path
         inkscape:export-ydpi="1200"
         inkscape:export-xdpi="1200"
         inkscape:export-filename="/mnt/home/jun/.share/projects/misc/ocamloscope/images/path2991.png"
         inkscape:connector-curvature="0"
         id="path3761"
         d="m 380,552.36218 -20,0 0,0 0,0"
         style="fill:none;stroke:#444942;stroke-width:2;stroke-linecap:butt;stroke-linejoin:miter;stroke-miterlimit:4;stroke-opacity:1;stroke-dasharray:none" />
      <path
         inkscape:export-ydpi="1200"
         inkscape:export-xdpi="1200"
         inkscape:export-filename="/mnt/home/jun/.share/projects/misc/ocamloscope/images/path2991.png"
         style="fill:#000000;fill-opacity:1;stroke:#444942;stroke-width:1.49999975999999990;stroke-miterlimit:4;stroke-opacity:1;stroke-dasharray:none"
         transform="matrix(1.3333336,0,0,1.3333335,-93.333416,-170.8003)"
         d="m 340,542.36218 c 0,16.56855 -13.43146,30 -30,30 -16.56854,0 -30,-13.43145 -30,-30 0,-16.56854 13.43146,-30 30,-30 16.56854,0 30,13.43146 30,30 z"
         sodipodi:ry="30"
         sodipodi:rx="30"
         sodipodi:cy="542.36218"
         sodipodi:cx="310"
         id="path2987-3-9-5"
         sodipodi:type="arc" />
    </g>
    <g
       id="g3879"
       transform="translate(-1.6e-6,-9.9871804)"
       inkscape:export-filename="/mnt/home/jun/.share/projects/misc/ocamloscope/images/path2991.png"
       inkscape:export-xdpi="1200"
       inkscape:export-ydpi="1200">
      <path
         id="path2987-3"
         d="m 320,532.36218 c -14.80988,0 -27.74152,8.03832 -34.65625,20 6.91808,11.94871 19.85608,20 34.65625,20 14.80017,0 27.73817,-8.05129 34.65625,-20 -6.91473,-11.96168 -19.84637,-20 -34.65625,-20 z"
         style="fill:#ffffff;fill-opacity:1;stroke:#000000;stroke-width:2;stroke-miterlimit:4;stroke-opacity:1;stroke-dasharray:none"
         inkscape:connector-curvature="0" />
      <path
         style="fill:#000000;fill-opacity:1;stroke:none"
         transform="matrix(0.58333336,0,0,0.58333332,139.16666,243.47143)"
         d="m 340,542.36218 c 0,16.56855 -13.43146,30 -30,30 -16.56854,0 -30,-13.43145 -30,-30 0,-16.56854 13.43146,-30 30,-30 16.56854,0 30,13.43146 30,30 z"
         sodipodi:ry="30"
         sodipodi:rx="30"
         sodipodi:cy="542.36218"
         sodipodi:cx="310"
         id="path2987-3-9-5-2"
         sodipodi:type="arc" />
    </g>
    <text
       xml:space="preserve"
       style="font-size:40px;font-style:normal;font-weight:normal;line-height:125%;letter-spacing:0px;word-spacing:0px;fill:#000000;fill-opacity:1;stroke:none;font-family:Sans"
       x="367.19046"
       y="631.63367"
       id="text3890"
       sodipodi:linespacing="125%"
       inkscape:export-filename="/mnt/home/jun/.share/projects/misc/ocamloscope/images/path2991.png"
       inkscape:export-xdpi="1200"
       inkscape:export-ydpi="1200"><tspan
         sodipodi:role="line"
         id="tspan3892"
         x="367.19046"
         y="631.63367" /></text>
    <path
       style="fill:none;stroke:none"
       d="m 420,552.36218 c 0,-55.22851 -44.77152,-100 -100,-100 -55.22848,0 -100,44.77149 -100,100 0,55.22851 44.77152,100 100,100 55.22848,0 100,-44.77149 100,-100"
       id="path3916"
       inkscape:connector-curvature="0"
       sodipodi:nodetypes="csssc"
       inkscape:export-filename="/mnt/home/jun/.share/projects/misc/ocamloscope/images/path2991.png"
       inkscape:export-xdpi="1200"
       inkscape:export-ydpi="1200" />
    <g
       style="font-size:40px;font-style:normal;font-weight:normal;line-height:125%;letter-spacing:0px;word-spacing:0px;fill:#ffffff;fill-opacity:1;stroke:none;font-family:Sans"
       id="text3942">
      <path
         d="m 268.64,600.00218 c -2e-5,-2.42665 -0.60002,-4.29332 -1.8,-5.6 -1.20001,-1.30665 -2.80001,-1.95998 -4.8,-1.96 -1.12001,2e-5 -2.00001,0.04 -2.64,0.12 -0.61334,0.08 -1.10667,0.17335 -1.48,0.28 l 0,13.12 c 0.45333,0.37334 1.10666,0.73334 1.96,1.08 0.85332,0.34667 1.78666,0.52001 2.8,0.52 1.06665,10e-6 1.97332,-0.18666 2.72,-0.56 0.77332,-0.39999 1.39998,-0.93333 1.88,-1.6 0.47998,-0.69333 0.82665,-1.49332 1.04,-2.4 0.21332,-0.93332 0.31998,-1.93332 0.32,-3 m 3.88,0 c -2e-5,1.57334 -0.21335,3.02668 -0.64,4.36 -0.40002,1.33334 -1.00002,2.48001 -1.8,3.44 -0.80002,0.96 -1.78668,1.70667 -2.96,2.24 -1.14668,0.53334 -2.46668,0.8 -3.96,0.8 -1.20001,0 -2.26668,-0.16 -3.2,-0.48 -0.90667,-0.32 -1.58667,-0.62666 -2.04,-0.92 l 0,8.32 -3.72,0 0,-27.56 c 0.88,-0.21331 1.97333,-0.43998 3.28,-0.68 1.33333,-0.26664 2.86666,-0.39998 4.6,-0.4 1.59999,2e-5 3.03999,0.25336 4.32,0.76 1.27998,0.50669 2.37332,1.22669 3.28,2.16 0.90665,0.93335 1.59998,2.08002 2.08,3.44 0.50665,1.33335 0.75998,2.84001 0.76,4.52"
         style="font-variant:normal;font-stretch:normal;stroke:#000000;stroke-width:1;stroke-linejoin:round;stroke-miterlimit:4;stroke-opacity:1;font-family:Ubuntu;-inkscape-font-specification:Ubuntu;fill:#ffffff;fill-opacity:1"
         id="path3018" />
      <path
         d="m 285.47375,589.12218 c 0.31999,2e-5 0.67999,0.0267 1.08,0.08 0.42665,0.0267 0.83999,0.08 1.24,0.16 0.39999,0.0534 0.75999,0.12002 1.08,0.2 0.34665,0.0534 0.59999,0.10669 0.76,0.16 l -0.64,3.24 c -0.29335,-0.10665 -0.78668,-0.22665 -1.48,-0.36 -0.66668,-0.15998 -1.53334,-0.23998 -2.6,-0.24 -0.69334,2e-5 -1.38668,0.08 -2.08,0.24 -0.66667,0.13335 -1.10667,0.22669 -1.32,0.28 l 0,17.48 -3.72,0 0,-19.92 c 0.88,-0.31998 1.97333,-0.61331 3.28,-0.88 1.30666,-0.29331 2.77332,-0.43998 4.4,-0.44"
         style="font-variant:normal;font-stretch:normal;stroke:#000000;stroke-width:1;stroke-linejoin:round;stroke-miterlimit:4;stroke-opacity:1;font-family:Ubuntu;-inkscape-font-specification:Ubuntu;fill:#ffffff;fill-opacity:1"
         id="path3020" />
      <path
         d="m 292.1025,600.00218 c 0,-1.83999 0.26666,-3.43998 0.8,-4.8 0.53333,-1.38665 1.24,-2.53331 2.12,-3.44 0.87999,-0.90664 1.89333,-1.58664 3.04,-2.04 1.14666,-0.45331 2.31999,-0.67998 3.52,-0.68 2.79999,2e-5 4.94665,0.88002 6.44,2.64 1.49331,1.73335 2.23998,4.38668 2.24,7.96 -2e-5,0.16001 -2e-5,0.37335 0,0.64 -2e-5,0.24001 -0.0134,0.46668 -0.04,0.68 l -14.24,0 c 0.15999,2.16001 0.78666,3.80001 1.88,4.92 1.09332,1.12001 2.79999,1.68001 5.12,1.68 1.30665,10e-6 2.39998,-0.10666 3.28,-0.32 0.90665,-0.23999 1.58665,-0.46666 2.04,-0.68 l 0.52,3.12 c -0.45335,0.24 -1.25335,0.49334 -2.4,0.76 -1.12002,0.26667 -2.40001,0.4 -3.84,0.4 -1.81334,0 -3.38668,-0.26666 -4.72,-0.8 -1.30667,-0.56 -2.38667,-1.32 -3.24,-2.28 -0.85334,-0.95999 -1.49334,-2.09333 -1.92,-3.4 -0.4,-1.33332 -0.6,-2.78666 -0.6,-4.36 m 14.28,-2.04 c 0.0267,-1.67998 -0.40002,-3.05332 -1.28,-4.12 -0.85335,-1.09331 -2.04001,-1.63998 -3.56,-1.64 -0.85334,2e-5 -1.61334,0.17335 -2.28,0.52 -0.64001,0.32002 -1.18667,0.74669 -1.64,1.28 -0.45334,0.53335 -0.81334,1.14668 -1.08,1.84 -0.24001,0.69335 -0.40001,1.40002 -0.48,2.12 l 10.32,0"
         style="font-variant:normal;font-stretch:normal;stroke:#000000;stroke-width:1;stroke-linejoin:round;stroke-miterlimit:4;stroke-opacity:1;font-family:Ubuntu;-inkscape-font-specification:Ubuntu;fill:#ffffff;fill-opacity:1"
         id="path3022" />
      <path
         d="m 331.84625,589.56218 c -1.04002,3.89335 -2.26668,7.62668 -3.68,11.2 -1.38668,3.57334 -2.73335,6.77334 -4.04,9.6 l -3.36,0 c -1.30667,-2.82666 -2.66667,-6.02666 -4.08,-9.6 -1.38667,-3.57332 -2.6,-7.30665 -3.64,-11.2 l 4,0 c 0.32,1.30669 0.69333,2.70669 1.12,4.2 0.45333,1.46668 0.91999,2.93335 1.4,4.4 0.50666,1.44001 1.01333,2.84001 1.52,4.2 0.50666,1.36001 0.98666,2.57334 1.44,3.64 0.45332,-1.06666 0.93332,-2.27999 1.44,-3.64 0.50665,-1.35999 0.99999,-2.75999 1.48,-4.2 0.50665,-1.46665 0.97332,-2.93332 1.4,-4.4 0.45332,-1.49331 0.83998,-2.89331 1.16,-4.2 l 3.84,0"
         style="font-variant:normal;font-stretch:normal;stroke:#000000;stroke-width:1;stroke-linejoin:round;stroke-miterlimit:4;stroke-opacity:1;font-family:Ubuntu;-inkscape-font-specification:Ubuntu;fill:#ffffff;fill-opacity:1"
         id="path3024" />
      <path
         d="m 339.40438,610.36218 -3.72001,0 0,-20.8 3.72001,0 0,20.8 m -1.88,-24.56 c -0.66668,3e-5 -1.24001,-0.21331 -1.72001,-0.64 -0.45333,-0.45331 -0.68,-1.0533 -0.68,-1.8 0,-0.74664 0.22667,-1.3333 0.68,-1.76 0.48,-0.4533 1.05333,-0.67997 1.72001,-0.68 0.66666,3e-5 1.22666,0.2267 1.68,0.68 0.47999,0.4267 0.71999,1.01336 0.71999,1.76 0,0.7467 -0.24,1.34669 -0.71999,1.8 -0.45334,0.42669 -1.01334,0.64003 -1.68,0.64"
         style="font-variant:normal;font-stretch:normal;stroke:#000000;stroke-width:1;stroke-linejoin:round;stroke-miterlimit:4;stroke-opacity:1;font-family:Ubuntu;-inkscape-font-specification:Ubuntu;fill:#ffffff;fill-opacity:1"
         id="path3026" />
      <path
         d="m 344.68063,600.00218 c -1e-5,-1.83999 0.26666,-3.43998 0.79999,-4.8 0.53333,-1.38665 1.24,-2.53331 2.12,-3.44 0.88,-0.90664 1.89333,-1.58664 3.04,-2.04 1.14666,-0.45331 2.31999,-0.67998 3.52,-0.68 2.79999,2e-5 4.94666,0.88002 6.44,2.64 1.49332,1.73335 2.23998,4.38668 2.24,7.96 -2e-5,0.16001 -2e-5,0.37335 0,0.64 -2e-5,0.24001 -0.0134,0.46668 -0.04,0.68 l -14.24,0 c 0.15999,2.16001 0.78665,3.80001 1.87999,4.92 1.09333,1.12001 2.79999,1.68001 5.12001,1.68 1.30665,10e-6 2.39998,-0.10666 3.27999,-0.32 0.90665,-0.23999 1.58665,-0.46666 2.04,-0.68 l 0.52,3.12 c -0.45335,0.24 -1.25335,0.49334 -2.39999,0.76 -1.12002,0.26667 -2.40002,0.4 -3.84001,0.4 -1.81334,0 -3.38667,-0.26666 -4.72,-0.8 -1.30667,-0.56 -2.38667,-1.32 -3.24,-2.28 -0.85333,-0.95999 -1.49333,-2.09333 -1.92,-3.4 -0.4,-1.33332 -0.6,-2.78666 -0.59999,-4.36 m 14.27999,-2.04 c 0.0267,-1.67998 -0.40001,-3.05332 -1.27999,-4.12 -0.85335,-1.09331 -2.04002,-1.63998 -3.56,-1.64 -0.85335,2e-5 -1.61335,0.17335 -2.28001,0.52 -0.64,0.32002 -1.18667,0.74669 -1.64,1.28 -0.45334,0.53335 -0.81334,1.14668 -1.07999,1.84 -0.24001,0.69335 -0.40001,1.40002 -0.48001,2.12 l 10.32,0"
         style="font-variant:normal;font-stretch:normal;stroke:#000000;stroke-width:1;stroke-linejoin:round;stroke-miterlimit:4;stroke-opacity:1;font-family:Ubuntu;-inkscape-font-specification:Ubuntu;fill:#ffffff;fill-opacity:1"
         id="path3028" />
      <path
         d="m 385.18437,610.36218 c -0.74668,-1.92 -1.54668,-4.10666 -2.4,-6.56 -0.82668,-2.47999 -1.58668,-5.05332 -2.28,-7.72 -0.69334,2.66668 -1.45334,5.24001 -2.28,7.72 -0.82667,2.45334 -1.61334,4.64 -2.36,6.56 l -3.24,0 c -1.22667,-2.74666 -2.42667,-5.87999 -3.59999,-9.4 -1.17334,-3.51998 -2.28001,-7.31998 -3.32,-11.4 l 4,0 c 0.26666,1.25336 0.58666,2.61335 0.95999,4.08 0.37333,1.46668 0.76,2.93335 1.16,4.4 0.42666,1.46668 0.86666,2.88001 1.32001,4.24 0.45332,1.36001 0.87999,2.54667 1.27999,3.56 0.45333,-1.25332 0.89333,-2.57332 1.32,-3.96 0.45333,-1.41332 0.87999,-2.82665 1.28001,-4.24 0.39998,-1.43998 0.77332,-2.83998 1.12,-4.2 0.37331,-1.38665 0.69331,-2.67998 0.95999,-3.88 l 3.08,0 c 0.23999,1.20002 0.53332,2.49335 0.88,3.88 0.34665,1.36002 0.71999,2.76002 1.12,4.2 0.39999,1.41335 0.81332,2.82668 1.24,4.24 0.45332,1.38668 0.90665,2.70668 1.36,3.96 0.39998,-1.01333 0.81332,-2.19999 1.24001,-3.56 0.4533,-1.35999 0.8933,-2.77332 1.32,-4.24 0.42664,-1.46665 0.82664,-2.93332 1.19999,-4.4 0.37331,-1.46665 0.69331,-2.82664 0.96,-4.08 l 3.84001,0 c -1.04003,4.08002 -2.1467,7.88002 -3.32,11.4 -1.17336,3.52001 -2.37336,6.65334 -3.60001,9.4 l -3.24,0"
         style="font-variant:normal;font-stretch:normal;stroke:#000000;stroke-width:1;stroke-linejoin:round;stroke-miterlimit:4;stroke-opacity:1;font-family:Ubuntu;-inkscape-font-specification:Ubuntu;fill:#ffffff;fill-opacity:1"
         id="path3030" />
    </g>
  </g>
</svg>
