<?xml version="1.0" encoding="UTF-8" standalone="no"?>
<!-- Created with Inkscape (http://www.inkscape.org/) -->

<svg
   xmlns:osb="http://www.openswatchbook.org/uri/2009/osb"
   xmlns:dc="http://purl.org/dc/elements/1.1/"
   xmlns:cc="http://creativecommons.org/ns#"
   xmlns:rdf="http://www.w3.org/1999/02/22-rdf-syntax-ns#"
   xmlns:svg="http://www.w3.org/2000/svg"
   xmlns="http://www.w3.org/2000/svg"
   xmlns:sodipodi="http://sodipodi.sourceforge.net/DTD/sodipodi-0.dtd"
   xmlns:inkscape="http://www.inkscape.org/namespaces/inkscape"
   width="803.20844"
   height="328.86615"
   id="svg2"
   version="1.1"
   inkscape:version="0.48.3.1 r9886"
   sodipodi:docname="logo.svg">
  <defs
     id="defs4">
    <linearGradient
       id="linearGradient3845"
       osb:paint="solid">
      <stop
         style="stop-color:#000000;stop-opacity:1;"
         offset="0"
         id="stop3847" />
    </linearGradient>
  </defs>
  <sodipodi:namedview
     id="base"
     pagecolor="#ffffff"
     bordercolor="#666666"
     borderopacity="1.0"
     inkscape:pageopacity="0.0"
     inkscape:pageshadow="2"
     inkscape:zoom="0.7"
     inkscape:cx="-273.85264"
     inkscape:cy="85.160185"
     inkscape:document-units="px"
     inkscape:current-layer="layer1"
     showgrid="true"
     inkscape:window-width="1680"
     inkscape:window-height="1003"
     inkscape:window-x="0"
     inkscape:window-y="19"
     inkscape:window-maximized="0"
     borderlayer="false"
     fit-margin-top="10"
     fit-margin-left="10"
     fit-margin-right="10"
     fit-margin-bottom="10"
     units="mm">
    <inkscape:grid
       type="xygrid"
       id="grid2998"
       empspacing="5"
       visible="true"
       enabled="true"
       snapvisiblegridlinesonly="true" />
  </sodipodi:namedview>
  <metadata
     id="metadata7">
    <rdf:RDF>
      <cc:Work
         rdf:about="">
        <dc:format>image/svg+xml</dc:format>
        <dc:type
           rdf:resource="http://purl.org/dc/dcmitype/StillImage" />
        <dc:title />
      </cc:Work>
    </rdf:RDF>
  </metadata>
  <g
     inkscape:label="Layer 1"
     inkscape:groupmode="layer"
     id="layer1"
     transform="translate(15.433071,-287.94193)">
    <path
       inkscape:connector-curvature="0"
       style="fill:#000000;fill-opacity:1;fill-rule:nonzero;stroke:none"
       d="m 340,352.375 c -55.22847,0 -100,44.77153 -100,100 0,55.22847 44.77153,100 100,100 55.22847,0 100,-44.77153 100,-100 0,-55.22847 -44.77153,-100 -100,-100 z m -2.0625,20 c 0.68617,-0.0174 1.37214,0 2.0625,0 44.18278,0 80,35.81722 80,80 0,44.18278 -35.81722,80 -80,80 -44.18278,0 -80,-35.81722 -80,-80 0,-43.49242 34.70901,-78.9048 77.9375,-80 z"
       id="path3000-1" />
    <path
       inkscape:connector-curvature="0"
       style="fill:#c8c8c8;fill-opacity:1;fill-rule:nonzero;stroke:#ffffff;stroke-width:18;stroke-linecap:round;stroke-linejoin:round;stroke-miterlimit:4;stroke-opacity:1;stroke-dasharray:none"
       d="m 560,332.375 c -82.01485,0 -152.48272,49.36093 -183.34375,120 30.86705,70.62498 101.33911,120 183.34375,120 82.00464,0 152.4767,-49.37502 183.34375,-120 -30.86103,-70.63907 -101.3289,-120 -183.34375,-120 z"
       id="path3027" />
    <path
       inkscape:connector-curvature="0"
       style="fill:#000000;fill-opacity:1;fill-rule:nonzero;stroke:none"
       d="m 120,352.375 c -55.228475,0 -100,44.77153 -100,100 0,55.22847 44.771525,100 100,100 55.22847,0 100,-44.77153 100,-100 0,-55.22847 -44.77153,-100 -100,-100 z m -2.0625,20 c 0.68617,-0.0174 1.37214,0 2.0625,0 44.18278,0 80,35.81722 80,80 0,44.18278 -35.81722,80 -80,80 -44.18278,0 -80,-35.81722 -80,-80 0,-43.49242 34.709012,-78.9048 77.9375,-80 z"
       id="path3000" />
    <path
       inkscape:connector-curvature="0"
       style="fill:#000000;fill-opacity:1;fill-rule:nonzero;stroke:none"
       d="m 560,352.375 c -55.22847,0 -100,44.77153 -100,100 0,55.22847 44.77153,100 100,100 55.22847,0 100,-44.77153 100,-100 0,-55.22847 -44.77153,-100 -100,-100 z m 0,40 c 33.13708,0 60,26.86292 60,60 0,33.13708 -26.86292,60 -60,60 -33.13708,0 -60,-26.86292 -60,-60 0,-33.13708 26.86292,-60 60,-60 z"
       id="path3000-7" />
    <path
       inkscape:connector-curvature="0"
       style="fill:#c8c8c8;fill-opacity:1;fill-rule:nonzero;stroke:none"
       d="m 557.9375,372.375 c -43.22849,1.0952 -77.9375,36.50758 -77.9375,80 0,44.18278 35.81722,80 80,80 44.18278,0 80,-35.81722 80,-80 0,-44.18278 -35.81722,-80 -80,-80 -0.69036,0 -1.37633,-0.0174 -2.0625,0 z m 2.0625,20 c 33.13708,0 60,26.86292 60,60 0,33.13708 -26.86292,60 -60,60 -33.13708,0 -60,-26.86292 -60,-60 0,-33.13708 26.86292,-60 60,-60 z"
       id="path3047-9" />
    <path
       sodipodi:type="arc"
       style="fill:#000000;fill-opacity:1;fill-rule:nonzero;stroke:none"
       id="path3900"
       sodipodi:cx="560"
       sodipodi:cy="452.36218"
       sodipodi:rx="60"
       sodipodi:ry="60"
       d="m 620,452.36218 c 0,33.13709 -26.86292,60 -60,60 -33.13708,0 -60,-26.86291 -60,-60 0,-33.13708 26.86292,-60 60,-60 33.13708,0 60,26.86292 60,60 z" />
  </g>
</svg>
