<?xml version="1.0" encoding="UTF-8" standalone="no"?>
<!-- Created with Inkscape (http://www.inkscape.org/) -->

<svg
   xmlns:dc="http://purl.org/dc/elements/1.1/"
   xmlns:cc="http://creativecommons.org/ns#"
   xmlns:rdf="http://www.w3.org/1999/02/22-rdf-syntax-ns#"
   xmlns:svg="http://www.w3.org/2000/svg"
   xmlns="http://www.w3.org/2000/svg"
   xmlns:sodipodi="http://sodipodi.sourceforge.net/DTD/sodipodi-0.dtd"
   xmlns:inkscape="http://www.inkscape.org/namespaces/inkscape"
   width="226.90309"
   height="249.66422"
   id="svg2"
   version="1.1"
   inkscape:version="0.48.0 r9654"
   sodipodi:docname="oco_kanji.svg">
  <defs
     id="defs4" />
  <sodipodi:namedview
     id="base"
     pagecolor="#ffffff"
     bordercolor="#666666"
     borderopacity="1.0"
     inkscape:pageopacity="0.0"
     inkscape:pageshadow="2"
     inkscape:zoom="0.7"
     inkscape:cx="121.10698"
     inkscape:cy="100.30109"
     inkscape:document-units="px"
     inkscape:current-layer="layer1"
     showgrid="false"
     fit-margin-top="10"
     fit-margin-left="10"
     fit-margin-right="10"
     fit-margin-bottom="10"
     inkscape:window-width="1680"
     inkscape:window-height="1003"
     inkscape:window-x="-4"
     inkscape:window-y="-4"
     inkscape:window-maximized="1" />
  <metadata
     id="metadata7">
    <rdf:RDF>
      <cc:Work
         rdf:about="">
        <dc:format>image/svg+xml</dc:format>
        <dc:type
           rdf:resource="http://purl.org/dc/dcmitype/StillImage" />
        <dc:title></dc:title>
      </cc:Work>
    </rdf:RDF>
  </metadata>
  <g
     inkscape:label="Layer 1"
     inkscape:groupmode="layer"
     id="layer1"
     transform="translate(-228.5957,-410.65575)">
    <g
       id="g4025"
       transform="matrix(0.25645475,0,0,0.25645475,317.95616,294.03007)">
      <g
         id="g4040"
         transform="translate(-918.91823,174.66116)">
        <path
           inkscape:connector-curvature="0"
           style="fill:#c8c8c8;fill-opacity:1;fill-rule:nonzero;stroke:#ffffff;stroke-width:18;stroke-linecap:round;stroke-linejoin:round;stroke-miterlimit:4;stroke-opacity:1;stroke-dasharray:none"
           d="m 1012.8571,458.07647 c -82.01481,0 -152.48268,49.36093 -183.34371,120 30.86705,70.62498 101.33911,120 183.34371,120 82.0047,0 152.4767,-49.37502 183.3438,-120 -30.861,-70.63907 -101.3289,-120 -183.3438,-120 z"
           id="path3027" />
        <path
           inkscape:connector-curvature="0"
           style="fill:#000000;fill-opacity:1;fill-rule:nonzero;stroke:none"
           d="m 1012.8571,478.07647 c -55.22843,0 -99.99996,44.77153 -99.99996,100 0,55.22847 44.77153,100 99.99996,100 55.2285,0 100,-44.77153 100,-100 0,-55.22847 -44.7715,-100 -100,-100 z m 0,40 c 33.1371,0 60,26.86292 60,60 0,33.13708 -26.8629,60 -60,60 -33.13704,0 -59.99996,-26.86292 -59.99996,-60 0,-33.13708 26.86292,-60 59.99996,-60 z"
           id="path3000-7" />
        <path
           inkscape:connector-curvature="0"
           style="fill:#c8c8c8;fill-opacity:1;fill-rule:nonzero;stroke:none"
           d="m 1010.7946,498.07647 c -43.22845,1.0952 -77.93746,36.50758 -77.93746,80 0,44.18278 35.81722,80 79.99996,80 44.1828,0 80,-35.81722 80,-80 0,-44.18278 -35.8172,-80 -80,-80 -0.6903,0 -1.3763,-0.0174 -2.0625,0 z m 2.0625,20 c 33.1371,0 60,26.86292 60,60 0,33.13708 -26.8629,60 -60,60 -33.13704,0 -59.99996,-26.86292 -59.99996,-60 0,-33.13708 26.86292,-60 59.99996,-60 z"
           id="path3047-9" />
        <path
           transform="translate(452.85714,125.70147)"
           sodipodi:type="arc"
           style="fill:#000000;fill-opacity:1;fill-rule:nonzero;stroke:none"
           id="path3900"
           sodipodi:cx="560"
           sodipodi:cy="452.36218"
           sodipodi:rx="60"
           sodipodi:ry="60"
           d="m 620,452.36218 c 0,33.13709 -26.86292,60 -60,60 -33.13708,0 -60,-26.86291 -60,-60 0,-33.13708 26.86292,-60 60,-60 33.13708,0 60,26.86292 60,60 z" />
      </g>
    </g>
    <g
       id="g3841"
       transform="translate(87.69773,-58.30126)">
      <path
         inkscape:connector-curvature="0"
         d="m 202.01731,645.69404 -10.36787,0 0,-17.27978 15.5518,0 c 1.84192,0.006 3.2699,-0.22193 4.28395,-0.68399 1.01392,-0.46193 1.79391,-1.19392 2.33997,-2.19597 l -11.08786,-7.9199 -5.61593,7.4879 -5.47193,0 0,-16.84778 15.5518,0 c 1.84192,0.0151 3.2699,-0.19491 4.28395,-0.62999 1.01392,-0.43491 1.79391,-1.1849 2.33997,-2.24997 l -11.08786,-7.9199 -5.61593,7.6319 -5.47193,0 0,-16.70378 19.43975,0 c 1.84791,0.0121 3.29989,-0.1919 4.35595,-0.612 1.05591,-0.41989 1.8599,-1.12787 2.41197,-2.12397 l -12.52784,-8.63989 -6.47992,8.2079 -27.21565,0 -11.80785,-4.89594 0,76.75101 1.72798,0 c 2.54695,-0.09 4.54492,-0.55795 5.99392,-1.40398 1.44896,-0.84595 2.18695,-1.52994 2.21398,-2.05197 l 0,-4.75194 33.55156,0 c -0.63904,14.30085 -1.52103,25.33469 -2.64596,33.10157 -1.12504,7.76691 -2.54702,12.42884 -4.26595,13.98582 -0.54604,0.48899 -1.14603,0.80699 -1.79998,0.95399 -0.65404,0.14699 -1.54202,0.21299 -2.66396,0.198 -1.68002,-0.012 -3.97199,-0.06 -6.87591,-0.144 -2.904,-0.084 -5.41196,-0.132 -7.5239,-0.144 l -0.144,2.30397 c 4.9709,0.74399 8.24085,1.70397 9.80987,2.87996 1.56894,1.17598 2.28293,3.28795 2.14197,6.33592 3.25192,0.012 5.96388,-0.30001 8.1359,-0.93599 2.17192,-0.636 4.16389,-1.66799 5.97592,-3.09596 2.84691,-2.27697 5.03688,-7.6949 6.56992,-16.25379 1.53291,-8.55887 2.6069,-20.8527 3.22196,-36.88152 1.43091,-0.20396 2.60089,-0.47995 3.50995,-0.82799 0.90892,-0.34795 1.61091,-0.83995 2.10597,-1.47598 l -11.95184,-9.21588 z m -32.25558,-20.59174 0,-16.84778 12.09584,0 0,16.84778 z m 12.09584,-20.01574 -12.09584,0 0,-16.70378 12.09584,0 z m 0,23.3277 0,17.27978 -12.09584,0 0,-17.27978 z m 83.51893,-33.69557 -24.91168,0 c 1.00789,-2.02187 1.97988,-4.09784 2.91596,-6.22792 0.93589,-2.12986 1.83587,-4.27783 2.69996,-6.44391 1.76088,-0.009 3.02686,-0.24288 3.79795,-0.70199 0.77089,-0.45888 1.28088,-1.08887 1.52999,-1.88998 l -16.1278,-5.03993 c -2.22305,9.74098 -5.08501,18.91485 -8.58589,27.52164 -3.50103,8.60698 -7.26298,15.65688 -11.28585,21.14973 l 1.87197,1.43998 c 2.95489,-2.3219 5.79285,-5.02186 8.51389,-8.0999 2.72089,-3.07787 5.30685,-6.42583 7.7579,-10.04387 3.71987,8.78397 8.3758,16.84786 13.96783,24.19169 -4.46104,5.34599 -9.54297,10.27792 -15.24581,14.79581 -5.703,4.51799 -12.04492,8.51394 -19.02575,11.98785 l 0.86399,2.30397 c 1.73391,-0.65096 3.44988,-1.32895 5.14793,-2.03398 1.69791,-0.70495 3.34188,-1.41894 4.93194,-2.14197 l 0,53.13532 1.72797,0 c 2.83489,-0.093 5.04886,-0.55501 6.64192,-1.38599 1.59289,-0.831 2.40288,-1.47299 2.42997,-1.92597 l 0,-6.62391 32.83157,0 0,8.92788 1.87198,0 c 2.72084,-0.09 4.9468,-0.522 6.67791,-1.29598 1.73085,-0.774 2.62484,-1.35 2.68197,-1.72798 l 0,-41.47147 c 1.41885,-0.29096 2.54083,-0.64496 3.36595,-1.06198 0.82486,-0.41696 1.47885,-0.87896 1.96198,-1.38599 l -8.0639,-6.04792 0,-0.144 c 1.55985,0.86403 3.19183,1.72802 4.89594,2.59197 0.51286,-2.65192 1.50285,-4.76389 2.96996,-6.33592 1.46685,-1.57193 3.35682,-2.67592 5.66993,-3.31195 l 0.43199,-1.58398 c -12.21597,-3.8879 -22.63183,-9.07183 -31.24759,-15.5518 4.03183,-4.54188 7.59578,-9.31781 10.69186,-14.32782 3.09583,-5.00985 5.7238,-10.21778 7.8839,-15.6238 1.69185,-0.1199 2.98783,-0.3119 3.88795,-0.57599 0.89985,-0.2639 1.61984,-0.74389 2.15997,-1.43998 l -11.51985,-10.22387 z m -30.38361,65.95115 32.83157,0 0,34.70356 -32.83157,0 z m 3.74395,-62.78319 27.21565,0 c -1.6501,4.75504 -3.60607,9.35697 -5.86793,13.80583 -2.26208,4.44902 -4.86604,8.72696 -7.8119,12.83383 -6.888,-6.35984 -12.40793,-13.51174 -16.55978,-21.45572 z m -2.15997,59.47124 -8.78389,-3.59996 c 4.81785,-2.45092 9.29379,-5.10888 13.42783,-7.9739 4.13385,-2.86491 7.96179,-5.91886 11.48385,-9.16188 5.20782,5.63998 11.35174,10.63192 18.43176,14.97581 l -4.46394,5.75993 z m -76.89501,7.6319 c -0.006,6.40194 -0.60601,11.66987 -1.79998,15.8038 -1.194,4.13396 -2.94597,7.16991 -5.25593,9.10788 -0.576,0.79799 -1.00799,1.57798 -1.29599,2.33997 -0.288,0.76199 -0.43199,1.46998 -0.43199,2.12397 0.033,1.31398 0.47099,2.35797 1.31398,3.13196 0.84299,0.77399 1.89297,1.16998 3.14996,1.18799 2.07297,0.069 4.04694,-1.22099 5.92192,-3.86995 1.87496,-2.64896 2.87695,-7.0709 3.00597,-13.26583 0.009,-2.22896 -0.15302,-4.71892 -0.486,-7.46991 -0.33301,-2.75094 -0.891,-5.7809 -1.67398,-9.08988 z m 16.27179,-3.59995 c 1.85994,3.02399 3.43192,6.62394 4.71594,10.79986 1.28394,4.17596 1.91994,8.06391 1.90797,11.66385 1.03195,1.27199 2.13594,1.89598 3.31196,1.87197 1.18794,-0.033 2.19593,-0.65098 3.02396,-1.85397 0.82795,-1.20297 1.25994,-2.79295 1.29598,-4.76994 0.069,-2.49295 -0.82503,-5.35491 -2.68196,-8.58589 -1.85702,-3.23093 -5.09097,-6.56088 -9.70188,-9.98987 z m -8.92789,2.59196 c 0.72597,2.277 1.28996,4.88697 1.69198,7.8299 0.40197,2.94298 0.60597,5.94894 0.61199,9.01789 -2e-5,3.33596 -0.28802,6.45592 -0.86399,9.35987 1.03197,1.43999 2.13595,2.15998 3.31196,2.15998 1.49396,-0.042 2.78994,-0.92999 3.88795,-2.66397 1.09796,-1.73397 1.67395,-4.06194 1.72798,-6.98391 0.039,-2.62195 -0.57902,-5.58591 -1.85398,-8.89188 -1.27501,-3.30594 -3.44098,-6.77389 -6.49791,-10.40387 z m 18.71976,-4.46394 c 2.15993,1.74601 4.06791,4.01398 5.72393,6.80391 1.65593,2.78999 2.62792,5.56196 2.91596,8.3159 1.12794,0.984 2.18392,1.46399 3.16796,1.43998 1.24493,-0.027 2.24692,-0.51298 3.00596,-1.45799 0.75894,-0.94497 1.14893,-2.18695 1.16998,-3.72595 0.081,-2.10294 -0.98104,-4.34091 -3.18596,-6.71391 -2.20502,-2.37294 -6.03896,-4.35891 -11.50185,-5.95792 z"
         style="font-size:144px;font-style:normal;font-variant:normal;font-weight:normal;font-stretch:normal;line-height:125%;letter-spacing:0px;word-spacing:0px;fill:#000000;fill-opacity:1;stroke:none;font-family:Kozuka Mincho Pr6N;-inkscape-font-specification:Kozuka Mincho Pr6N"
         id="path2992-4" />
      <path
         sodipodi:nodetypes="cccccccsccccccccccccccccccccccccccccccccccccccccsccccsccccc"
         inkscape:connector-curvature="0"
         id="path2994-0"
         d="m 312.01981,575.69765 0,25.65625 -17.5625,0 c -0.31207,-1.87188 -0.84984,-3.90243 -1.59375,-6.0625 l -2.4375,0 c 0.20692,3.12606 -0.36459,6.12613 -1.6875,9 -1.32305,2.87406 -2.93159,5.00836 -4.8125,6.40625 -1.24504,0.80408 -2.24107,1.75184 -3,2.84375 -0.75905,1.09207 -1.13532,2.2641 -1.15625,3.5 -0.0151,1.14907 0.4142,2.22709 1.28125,3.25 0.86692,1.02306 2.25845,1.58732 4.1875,1.65625 3.18589,-0.0899 5.6337,-1.47896 7.34375,-4.125 1.7099,-2.64589 2.57567,-6.03422 2.59375,-10.15625 0.0239,-1.0079 -0.0364,-1.99192 -0.15625,-3 l 46.21875,0 c -0.59412,2.69406 -1.23563,5.49163 -1.9375,8.4375 -0.70212,2.94604 -1.34364,5.43235 -1.9375,7.40625 l 1.875,1 c 2.23785,-1.8299 4.55065,-4.09196 6.96875,-6.75 2.41784,-2.65788 4.46289,-5.11294 6.125,-7.375 1.36185,-0.0599 2.48087,-0.17091 3.375,-0.375 0.89385,-0.20391 1.59562,-0.57041 2.09375,-1.0625 l -11.375,-10.9375 -6.1875,6.34375 -17.125,0 0,-20.15625 c 2.40886,-0.33288 4.10665,-0.80789 5.09375,-1.375 0.98688,-0.56688 1.49813,-1.40615 1.53125,-2.53125 z m -17.5625,45.8125 0,68.6875 c -0.15907,5.90992 0.8587,9.87953 3.09375,11.9375 2.23489,2.05797 6.61925,3.01299 13.15625,2.875 l 26.9375,0 c 6.52179,0.006 11.0894,-0.54627 13.6875,-1.65625 2.59783,-1.11 3.85186,-2.79578 3.75,-5.09375 0.0659,-0.81898 -0.24765,-1.487 -0.9375,-2 -0.69013,-0.51299 -2.16842,-1.15925 -4.40625,-1.90625 l 0.15625,-18.71875 -1.4375,0 c -1.09811,4.34696 -2.16639,8.1573 -3.15625,11.40625 -0.99011,3.24896 -1.80289,5.34951 -2.46875,6.3125 -0.56712,0.90299 -1.25688,1.48176 -2.09375,1.71875 -0.83711,0.237 -1.87889,0.3455 -3.09375,0.3125 l -26.625,0 c -2.50206,0.084 -4.0841,-0.15475 -4.75,-0.71875 -0.66608,-0.56399 -0.96509,-1.96752 -0.875,-4.1875 l 0,-29.53125 c 6.34482,-1.82094 13.04199,-4.22774 20.125,-7.21875 7.08279,-2.99091 14.05722,-6.43475 20.90625,-10.34375 1.31985,0.69604 2.42437,1.02405 3.3125,1 0.83985,-0.0239 1.61637,-0.2627 2.3125,-0.71875 l -10.21875,-11.9375 c -5.84704,4.947 -11.94845,9.58461 -18.28125,13.9375 -6.33302,4.35299 -12.38142,8.10308 -18.15625,11.25 l 0,-30.53125 c 2.03688,-0.27293 3.42842,-0.64918 4.1875,-1.15625 0.7589,-0.50692 1.18816,-1.20394 1.28125,-2.125 z"
         style="font-size:144px;font-style:normal;font-variant:normal;font-weight:normal;font-stretch:normal;line-height:125%;letter-spacing:0px;word-spacing:0px;fill:#000000;fill-opacity:1;stroke:none;font-family:Kozuka Mincho Pr6N;-inkscape-font-specification:Kozuka Mincho Pr6N" />
    </g>
    <path
       style="font-size:144px;font-style:normal;font-variant:normal;font-weight:normal;font-stretch:normal;line-height:125%;letter-spacing:0px;word-spacing:0px;fill:#000000;fill-opacity:1;stroke:none;font-family:Kozuka Mincho Pr6N;-inkscape-font-specification:Kozuka Mincho Pr6N"
       d="m 326.05563,420.65575 c -2.38099,6.90214 -5.64178,13.78936 -9.78828,20.69124 l -45.91087,0 0.97534,3.69238 42.70617,0 c -4.93912,7.53746 -11.20797,14.63425 -18.77539,21.24858 -7.56749,6.61451 -16.67242,12.32962 -27.30965,17.1382 l 1.28885,2.40353 c 8.14597,-2.66844 15.55156,-5.68653 22.22393,-9.0916 0.1767,-0.0902 0.34684,-0.18798 0.5225,-0.27867 0.75889,-0.42726 1.51968,-0.82104 2.29903,-1.21919 0.2111,-0.1079 0.41766,-0.20716 0.62701,-0.3135 0.15069,-0.0833 0.3029,-0.16021 0.45284,-0.24384 1.52328,-0.84953 3.01285,-1.72626 4.45871,-2.61253 0.0566,-0.0457 0.12042,-0.0934 0.17417,-0.13933 0.0924,-0.0498 0.18331,-0.0928 0.27867,-0.13934 0.0572,-0.0354 0.11711,-0.069 0.17417,-0.10444 5.34719,-3.32248 10.145,-6.89427 14.42117,-10.69396 5.70145,-5.06605 10.56437,-10.386 14.56051,-15.95385 l 26.64781,0 c 2.74533,3.8691 5.87709,7.60839 9.40511,11.21646 3.5278,3.60826 7.35042,6.99001 11.4603,10.13662 4.34835,3.61559 6.63688,4.86375 12.01764,7.80276 1.23994,0.78715 2.63233,1.43628 3.83171,2.19452 0.0132,-0.009 0.0219,-0.0252 0.0348,-0.0348 2.41423,1.28751 4.88471,2.48109 7.41959,3.58787 2.53461,1.10694 5.0884,2.10961 7.66342,2.9957 0.53155,-2.59152 1.88369,-4.89255 4.04072,-6.86224 2.15672,-1.96954 4.83146,-3.46158 8.01176,-4.52839 l 0.17416,-1.77652 c -10.18261,-1.58162 -20.76871,-4.52249 -31.73353,-8.81294 -10.96509,-4.29024 -19.9786,-9.60211 -27.03099,-15.91902 l 47.02555,0 c 2.21358,0.007 3.94472,-0.21643 5.1554,-0.73151 1.21037,-0.51487 2.10827,-1.35618 2.71703,-2.47319 l -16.99881,-11.39075 -9.02194,10.90296 -58.10268,0 c 1.29071,-2.08653 2.5219,-4.14846 3.69237,-6.23524 1.17033,-2.08652 2.26971,-4.18329 3.23954,-6.27007 1.97957,0.18071 3.4769,0.0974 4.49355,-0.24384 1.01649,-0.34095 1.68058,-1.05604 2.0552,-2.15969 z"
       id="path2998-4"
       inkscape:connector-curvature="0"
       sodipodi:nodetypes="cccccscccccccccccsccccccccccccccccccccscccc" />
  </g>
</svg>
